<svg width="24" height="24" viewBox="0 0 24 24" fill="none" xmlns="http://www.w3.org/2000/svg">
<path d="M16.0833 10.5833H12.4167V6.91668C12.4167 6.41068 12.0069 6 11.5 6C10.9931 6 10.5833 6.41068 10.5833 6.91668V10.5833H6.91668C6.40976 10.5833 6 10.994 6 11.5C6 12.006 6.40976 12.4167 6.91668 12.4167H10.5833V16.0833C10.5833 16.5893 10.9931 17 11.5 17C12.0069 17 12.4167 16.5893 12.4167 16.0833V12.4167H16.0833C16.5902 12.4167 17 12.006 17 11.5C17 10.994 16.5902 10.5833 16.0833 10.5833Z" fill="black"/>
</svg>
